<?xml version="1.0" encoding="iso-8859-1"?>
<!-- Generator: Adobe Illustrator 18.1.1, SVG Export Plug-In . SVG Version: 6.00 Build 0)  -->
<svg version="1.1" id="Capa_1" xmlns="http://www.w3.org/2000/svg" xmlns:xlink="http://www.w3.org/1999/xlink" x="0px" y="0px"
	 height="494.571" width="494.571" viewBox="0 0 494.571 494.571" style="enable-background:new 0 0 494.571 494.571;" xml:space="preserve">
<g>
	<g id="Icons_35_">
		<g>
			<path d="M406.453,32.159L379.622,5.317C372.3-1.885,359.355-1.69,352.39,5.412l-17.431,17.441L317.673,5.575
				c-7.293-7.176-19.768-7.274-27.25,0.098l-17.172,17.18l-15.73-15.739c-7.293-7.177-19.75-7.274-27.233,0.098L214.65,22.853
				L198.902,7.114c-7.287-7.177-19.744-7.274-27.232,0.098l-15.634,15.641L140.307,7.114c-7.294-7.177-19.751-7.274-27.234,0.098
				L88.126,32.159c-4.699,4.698-7.295,10.953-7.295,17.612l0.018,316.197h-0.018v78.582c0,6.659,2.596,12.914,7.295,17.611
				l25.044,25.048c7.288,7.176,19.751,7.282,27.233-0.106l15.633-15.636l15.73,15.742c7.293,7.176,19.75,7.273,27.232-0.097
				l15.633-15.645l15.747,15.742c7.294,7.176,19.751,7.273,27.233-0.097l15.639-15.645l17.27,17.281
				c7.287,7.176,19.762,7.273,27.25-0.098l17.188-17.183l17.333,17.344c3.595,3.661,8.619,5.76,13.754,5.76
				c5.105,0,9.93-1.978,13.674-5.662l26.733-26.748c4.698-4.697,7.288-10.952,7.288-17.611v-78.59V49.77
				C413.741,43.111,411.151,36.857,406.453,32.159z M380.564,441.132l-11.94,11.938c-0.684,0.684-1.611,1.067-2.578,1.067
				s-1.894-0.384-2.577-1.068l-14.95-14.958c-3.647-3.59-8.471-5.565-13.576-5.565c-5.152,0-10.011,2.007-13.657,5.662l-14.61,14.61
				c-0.684,0.684-1.611,1.068-2.578,1.068s-1.894-0.385-2.577-1.069l-14.692-14.706c-7.294-7.179-19.75-7.276-27.233,0.097
				l-13.062,13.064c-1.423,1.423-3.73,1.424-5.154,0.001l-13.17-13.163c-7.287-7.179-19.744-7.276-27.232,0.097l-13.057,13.063
				c-1.423,1.424-3.73,1.424-5.154,0.001l-13.17-13.162c-7.287-7.179-19.75-7.282-27.232,0.103l-13.056,13.058
				c-1.423,1.424-3.731,1.424-5.154,0l-10.144-10.141v-75.165h0.018l-0.018-312.777l10.143-10.14
				c0.684-0.684,1.611-1.067,2.578-1.067c0.967,0,1.894,0.385,2.577,1.068l13.153,13.16c7.293,7.176,19.75,7.274,27.233-0.098
				l13.056-13.062c1.423-1.424,3.73-1.425,5.154-0.002l13.169,13.162c7.294,7.176,19.751,7.274,27.233-0.098l13.063-13.063
				c1.423-1.423,3.73-1.423,5.153-0.001l13.17,13.162c7.288,7.176,19.744,7.274,27.233-0.098l14.595-14.608
				c0.684-0.684,1.61-1.068,2.577-1.069c0.967,0,1.895,0.384,2.578,1.067l14.61,14.61c7.259,7.274,19.813,7.412,27.331,0
				l14.853-14.862c0.684-0.684,1.61-1.068,2.577-1.068s1.895,0.384,2.578,1.067l11.94,11.94v312.769v75.176H380.564z"/>
			<path d="M159.166,140.883h88.132c9.166,0,16.586-7.429,16.586-16.589c0-9.163-7.42-16.588-16.586-16.588h-88.132
				c-9.171,0-16.592,7.425-16.592,16.588C142.574,133.454,149.995,140.883,159.166,140.883z"/>
			<path d="M330.243,190.652H159.166c-9.171,0-16.592,7.428-16.592,16.591c0,9.16,7.421,16.588,16.592,16.588h171.077
				c9.172,0,16.593-7.428,16.593-16.588C346.836,198.08,339.415,190.652,330.243,190.652z"/>
			<path d="M159.166,306.777h121.31c9.171,0,16.592-7.425,16.592-16.588c0-9.16-7.421-16.588-16.592-16.588h-121.31
				c-9.171,0-16.592,7.428-16.592,16.588C142.574,299.352,149.995,306.777,159.166,306.777z"/>
			<path d="M330.243,356.546H159.166c-9.171,0-16.592,7.429-16.592,16.592c0,9.16,7.421,16.588,16.592,16.588h171.077
				c9.172,0,16.593-7.428,16.593-16.588C346.836,363.975,339.415,356.546,330.243,356.546z"/>
		</g>
	</g>
</g>
<g>
</g>
<g>
</g>
<g>
</g>
<g>
</g>
<g>
</g>
<g>
</g>
<g>
</g>
<g>
</g>
<g>
</g>
<g>
</g>
<g>
</g>
<g>
</g>
<g>
</g>
<g>
</g>
<g>
</g>
</svg>
